<svg xmlns="http://www.w3.org/2000/svg" height="1200" width="1600" version="1.1" xmlns:xlink="http://www.w3.org/1999/xlink" xmlns:svgjs="http://svgjs.com/svgjs"><rect fill="#ffffff" width="1600" height="1200"></rect><g><path d="M1047.37 301.82C1155.63 252.95 1304.53 255.68 1351.26 324.19 1397.23 392.8 1341.88 527.85 1300.84 637.15 1259.9 747.21 1233.28 831.53 1172 868.84 1110.61 905.39 1013.91 895.8 939.05 911.8 864.19 927.81 812.02 970.07 749.82 982.88 687.72 996.43 614.83 980.62 570.54 936.42 526.24 892.22 510.53 819.63 437.46 732.26 364.3 644.14 234.62 541.9 220.57 446.77 205.76 351.74 307.42 264.47 423.78 283.03 540.13 301.59 670.42 426.07 770.54 438.3 870.01 451.38 938.37 350.8 1047.37 301.82Z" fill="#d0e9f2" opacity="1" stroke-width="4" stroke="none"></path></g><g><path d="M622.32 1022.71H515.5C514.52 1022.71 513.71 1021.92 513.71 1020.93 513.71 1019.95 514.5 1019.15 515.5 1019.15H622.32C623.29 1019.15 624.1 1019.94 624.1 1020.93 624.1 1021.91 623.31 1022.71 622.32 1022.71Z" fill="#1f2123" opacity="1" stroke-width="4" stroke="none"></path></g><g><path d="M1402.81 1024.07H1295.99C1295.01 1024.07 1294.21 1023.28 1294.21 1022.29 1294.21 1021.31 1295 1020.51 1295.99 1020.51H1402.81C1403.79 1020.51 1404.59 1021.3 1404.59 1022.29 1404.59 1023.27 1403.8 1024.07 1402.81 1024.07Z" fill="#1f2123" opacity="1" stroke-width="4" stroke="none"></path></g><g><path d="M1276.29 834.9C1282.11 834.9 1286.89 839.6 1286.89 845.42L1286.81 872.96V986.88C1286.81 992.69 1282.11 997.4 1276.29 997.4 1270.47 997.4 1265.77 992.69 1265.77 986.88V845.42C1265.68 839.6 1270.39 834.9 1276.29 834.9Z" fill="#d0e9f2" opacity="1" stroke-width="4" stroke="none"></path><path d="M1276.29 834.9C1270.39 834.9 1265.68 839.6 1265.77 845.42V882.53L1286.81 872.96 1286.89 845.42C1286.81 839.6 1282.11 834.9 1276.29 834.9Z" fill="#0c0f10" opacity="0.2" stroke-width="4" stroke="none"></path><path d="M1350.1 1011.51C1348.65 1010.23 1276.89 947.54 1276.89 947.54H1275.6C1275.6 947.54 1203.85 1010.23 1202.39 1011.51 1200.6 1012.54 1198.63 1017.58 1201.45 1020.83 1203.68 1023.57 1207.61 1024.25 1210.6 1022.29 1210.77 1022.2 1250.03 995.26 1273.55 979.1 1275.18 977.98 1277.23 977.98 1278.85 979.1 1302.38 995.26 1341.72 1022.2 1341.8 1022.29 1344.88 1024.25 1348.9 1023.48 1350.95 1020.83 1353.86 1017.5 1351.9 1012.54 1350.1 1011.51Z" fill="#229b99" opacity="1" stroke-width="4" stroke="none"></path><path d="M1259.18 943.43H1293.31C1295.36 943.43 1296.99 945.06 1296.99 947.11V965.41H1255.42V947.11C1255.51 945.06 1257.13 943.43 1259.18 943.43Z" fill="#253b6e" opacity="1" stroke-width="4" stroke="none"></path><path d="M1255.51 828.22H1297.07V856.71C1297.07 858.16 1295.87 859.44 1294.34 859.44H1258.16C1256.7 859.44 1255.51 858.24 1255.51 856.71V828.22Z" fill="#253b6e" opacity="1" stroke-width="4" stroke="none"></path><path d="M1214.79 811.29H1337.7C1345.91 811.29 1352.49 817.96 1352.49 826.09 1352.49 834.3 1345.82 840.88 1337.7 840.88H1214.79C1206.58 840.88 1200 834.21 1200 826.09 1200 817.96 1206.67 811.29 1214.79 811.29Z" fill="#229b99" opacity="1" stroke-width="4" stroke="none"></path></g><g><path d="M322.67 951.72H244.11C243.79 930 261.15 912.16 282.87 911.84 304.6 911.53 322.44 928.89 322.75 950.61 322.67 950.93 322.67 951.33 322.67 951.72Z" fill="#9ecfff" opacity="1" stroke-width="4" stroke="none"></path><path d="M441.04 963.93H454.2C459.59 963.93 464.03 968.29 464.03 973.76 464.03 979.15 459.67 983.59 454.2 983.59H441.04C435.65 983.59 431.21 979.23 431.21 973.76 431.21 968.29 435.65 963.93 441.04 963.93Z" fill="#9ecfff" opacity="1" stroke-width="4" stroke="none"></path><path d="M405.29 1023.79C416.76 1023.79 426.06 1014.49 426.06 1003.02 426.06 991.55 416.76 982.25 405.29 982.25 393.81 982.25 384.51 991.55 384.51 1003.02 384.51 1014.49 393.81 1023.79 405.29 1023.79Z" fill="#1f2123" opacity="1" stroke-width="4" stroke="none"></path><path d="M335.84 948.47H228.73C228.65 948.47 228.65 948.47 228.65 948.55V1002.46C228.65 1002.54 228.65 1002.54 228.73 1002.54H250.45C250.53 1002.54 250.53 1002.54 250.53 1002.46 250.85 985.5 264.8 972.02 281.76 972.26 298.33 972.49 311.65 985.81 312.05 1002.46 312.05 1002.54 312.05 1002.54 312.13 1002.54H335.84C335.91 1002.54 335.91 1002.54 335.91 1002.46L335.84 948.47C335.91 948.47 335.91 948.47 335.84 948.47Z" fill="#253b6e" opacity="1" stroke-width="4" stroke="none"></path><path d="M335.91 948.47L230.39 948.39C230.15 948.39 230.07 948.79 230.31 948.87L335.84 977.41 335.91 948.47Z" fill="#4d4d4d" opacity="0.2" stroke-width="4" stroke="none"></path><path d="M281.29 1023.79C292.76 1023.79 302.06 1014.49 302.06 1003.02 302.06 991.55 292.76 982.25 281.29 982.25 269.82 982.25 260.52 991.55 260.52 1003.02 260.52 1014.49 269.82 1023.79 281.29 1023.79Z" fill="#1f2123" opacity="1" stroke-width="4" stroke="none"></path><path d="M281.29 1009.2C284.71 1009.2 287.47 1006.43 287.47 1003.02 287.47 999.6 284.71 996.83 281.29 996.83 277.87 996.83 275.11 999.6 275.11 1003.02 275.11 1006.43 277.87 1009.2 281.29 1009.2Z" fill="#229b99" opacity="1" stroke-width="4" stroke="none"></path><path d="M404.97 1009.2C408.39 1009.2 411.15 1006.43 411.15 1003.02 411.15 999.6 408.39 996.83 404.97 996.83 401.55 996.83 398.78 999.6 398.78 1003.02 398.78 1006.43 401.55 1009.2 404.97 1009.2Z" fill="#229b99" opacity="1" stroke-width="4" stroke="none"></path><path d="M438.27 944.67L401.32 934.99 401.24 934.91V910.5C401.24 910.42 401.24 910.42 401.16 910.42H335.91C335.84 910.42 335.84 910.42 335.84 910.5V1002.46C335.84 1002.54 335.84 1002.54 335.91 1002.54H374.45C374.52 1002.54 374.52 1002.54 374.52 1002.46 374.6 985.5 388.32 971.78 405.29 971.78 422.25 971.78 435.97 985.5 436.05 1002.46 436.05 1002.54 436.05 1002.54 436.13 1002.54H452.7C452.78 1002.54 452.78 1002.54 452.78 1002.46V963.46C452.78 954.66 446.83 946.89 438.27 944.67ZM387.37 948.47H349.87C349.79 948.47 349.79 948.47 349.79 948.39V925C349.79 924.92 349.79 924.92 349.87 924.92H387.37C387.45 924.92 387.45 924.92 387.45 925L387.37 948.47C387.45 948.47 387.45 948.47 387.37 948.47Z" fill="#229b99" opacity="1" stroke-width="4" stroke="none"></path><path d="M335.84 910.42H401.24" stroke="#000000" stroke-width="4" stroke-linecap="round" stroke-linejoin="round" opacity="1" fill="none"></path><path d="M335.91 948.39H228.65" stroke="#000000" stroke-width="4" stroke-linecap="round" stroke-linejoin="round" opacity="1" fill="none"></path><path d="M250.53 1002.54H228.65" stroke="#000000" stroke-width="4" stroke-linecap="round" stroke-linejoin="round" opacity="1" fill="none"></path><path d="M374.52 1002.54H312.05" stroke="#000000" stroke-width="4" stroke-linecap="round" stroke-linejoin="round" opacity="1" fill="none"></path><path d="M452.78 1002.54H436.05" stroke="#000000" stroke-width="4" stroke-linecap="round" stroke-linejoin="round" opacity="1" fill="none"></path></g><g><path d="M511.09 324.64H333.92V559.03H511.09V324.64Z" fill="#ffffff" opacity="1" stroke-width="4" stroke="none"></path><path d="M349.85 346.53C353.15 346.53 355.82 343.86 355.82 340.56 355.82 337.26 353.15 334.59 349.85 334.59 346.55 334.59 343.87 337.26 343.87 340.56 343.87 343.86 346.55 346.53 349.85 346.53Z" fill="#ececec" opacity="1" stroke-width="4" stroke="none"></path><path d="M495.16 346.53C498.46 346.53 501.13 343.86 501.13 340.56 501.13 337.26 498.46 334.59 495.16 334.59 491.86 334.59 489.19 337.26 489.19 340.56 489.19 343.86 491.86 346.53 495.16 346.53Z" fill="#ececec" opacity="1" stroke-width="4" stroke="none"></path><path d="M349.85 549.08C353.15 549.08 355.82 546.41 355.82 543.11 355.82 539.81 353.15 537.13 349.85 537.13 346.55 537.13 343.87 539.81 343.87 543.11 343.87 546.41 346.55 549.08 349.85 549.08Z" fill="#ececec" opacity="1" stroke-width="4" stroke="none"></path><path d="M495.16 549.08C498.46 549.08 501.13 546.41 501.13 543.11 501.13 539.81 498.46 537.13 495.16 537.13 491.86 537.13 489.19 539.81 489.19 543.11 489.19 546.41 491.86 549.08 495.16 549.08Z" fill="#ececec" opacity="1" stroke-width="4" stroke="none"></path></g><g><path d="M347.53 351.21C348.35 352.03 345.98 533.45 348.35 533.25H497.16C497.6 533.25 497.98 532.87 497.98 532.43 497.98 532.43 497.64 353.44 497.98 351.21 497.98 350.78 497.6 350.39 497.16 350.39H348.35C347.92 350.39 347.53 350.78 347.53 351.21Z" fill="#ffffff" opacity="1" stroke-width="4" stroke="none"></path><path d="M423 409.84C433.69 409.84 442.35 401.18 442.35 390.49 442.35 379.81 433.69 371.14 423 371.14 412.31 371.14 403.65 379.81 403.65 390.49 403.65 401.18 412.31 409.84 423 409.84Z" fill="#9ecfff" opacity="1" stroke-width="4" stroke="none"></path><path d="M420 388.85C422.43 388.85 424.4 386.88 424.4 384.45 424.4 382.01 422.43 380.04 420 380.04 417.57 380.04 415.6 382.01 415.6 384.45 415.6 386.88 417.57 388.85 420 388.85Z" fill="#d5e9fc" opacity="1" stroke-width="4" stroke="none"></path><path d="M434.66 415.94H410.91V485.26C410.91 489.04 412.36 492.62 414.92 495.37L416.23 496.78C418.5 499.2 419.76 502.34 419.76 505.68V511.87C419.76 513.56 421.11 514.92 422.81 514.92 424.5 514.92 425.85 513.56 425.85 511.87V505.68C425.85 502.39 427.11 499.2 429.38 496.78L430.69 495.37C433.26 492.66 434.71 489.04 434.71 485.26L434.66 415.94Z" fill="#9ecfff" opacity="1" stroke-width="4" stroke="none"></path><path d="M415.6 486.38V463.98H429.97V486.38C429.97 490.34 426.77 493.54 422.81 493.54 418.79 493.58 415.6 490.34 415.6 486.38Z" fill="#59acfe" opacity="1" stroke-width="4" stroke="none"></path><path d="M401.52 409.31H444.04C448.01 409.31 451.2 412.5 451.2 416.52 451.2 420.49 448.01 423.73 444.04 423.73H401.52C397.55 423.73 394.36 420.54 394.36 416.52 394.31 412.5 397.55 409.31 401.52 409.31Z" fill="#59acfe" opacity="1" stroke-width="4" stroke="none"></path><path d="M421.4 434.71H424.11" stroke="#fcfcfc" stroke-width="4" stroke-linecap="round" stroke-linejoin="round" opacity="1" fill="none"></path><path d="M421.4 446.32H424.11" stroke="#ffffff" stroke-width="4" stroke-linecap="round" stroke-linejoin="round" opacity="1" fill="none"></path><path d="M421.4 457.93H424.11" stroke="#ffffff" stroke-width="4" stroke-linecap="round" stroke-linejoin="round" opacity="1" fill="none"></path><path d="M421.4 469.54H424.11" stroke="#ffffff" stroke-width="4" stroke-linecap="round" stroke-linejoin="round" opacity="1" fill="none"></path><path d="M421.4 481.15H424.11" stroke="#ffffff" stroke-width="4" stroke-linecap="round" stroke-linejoin="round" opacity="1" fill="none"></path><path d="M367.8 513.9H391.02" stroke="#9ecfff" stroke-width="4" stroke-linecap="round" stroke-linejoin="round" opacity="1" fill="none"></path></g><g><path d="M1109.21 381.67H1255.96C1260.41 381.67 1264.04 385.3 1264.04 389.75V551.42C1264.04 555.87 1260.41 559.5 1255.96 559.5H1109.21C1104.76 559.5 1101.13 555.87 1101.13 551.42V389.75C1101.07 385.3 1104.69 381.67 1109.21 381.67Z" fill="#ffffff" opacity="1" stroke-width="4" stroke="none"></path><path d="M1109.21 381.67H1255.96C1260.41 381.67 1264.04 385.3 1264.04 389.75V420.7H1101.13L1101.07 389.75C1101.07 385.3 1104.69 381.67 1109.21 381.67Z" fill="#9ecfff" opacity="1" stroke-width="4" stroke="none"></path><path d="M1133.32 463.43C1139.1 463.43 1143.8 458.74 1143.8 452.95 1143.8 447.17 1139.1 442.48 1133.32 442.48 1127.53 442.48 1122.84 447.17 1122.84 452.95 1122.84 458.74 1127.53 463.43 1133.32 463.43Z" fill="#9ecfff" opacity="1" stroke-width="4" stroke="none"></path><path d="M1133.32 501.43C1139.1 501.43 1143.8 496.74 1143.8 490.96 1143.8 485.17 1139.1 480.48 1133.32 480.48 1127.53 480.48 1122.84 485.17 1122.84 490.96 1122.84 496.74 1127.53 501.43 1133.32 501.43Z" fill="#9ecfff" opacity="1" stroke-width="4" stroke="none"></path><path d="M1133.32 539.44C1139.1 539.44 1143.8 534.75 1143.8 528.96 1143.8 523.18 1139.1 518.49 1133.32 518.49 1127.53 518.49 1122.84 523.18 1122.84 528.96 1122.84 534.75 1127.53 539.44 1133.32 539.44Z" fill="#253b6e" opacity="1" stroke-width="4" stroke="none"></path><path d="M1139.55 371.87V390.77" stroke="#00488f" stroke-width="4" stroke-linecap="round" stroke-linejoin="round" opacity="1" fill="none"></path><path d="M1225.56 371.87V390.77" stroke="#00488f" stroke-width="4" stroke-linecap="round" stroke-linejoin="round" opacity="1" fill="none"></path><path d="M1102.23 420.49H1263.29" stroke="#00488f" stroke-width="4" stroke-linecap="round" stroke-linejoin="round" opacity="1" fill="none"></path></g><g><path d="M643.44 918.13C644.94 934.6 653.18 1000.49 656.92 1022.95L720.49 1021.23C720.49 1021.23 723.64 1014.04 711.58 1006.26 709.33 1004.76 708.21 1001.99 706.71 1000.34 699.9 992.78 700.65 983.79 701.85 975.78 702.67 970.16 706.56 953.99 709.63 941.19 711.95 931.75 713.83 924.12 713.83 924.12L643.44 918.13Z" fill="#f8c6b4" opacity="1" stroke-width="4" stroke="none"></path><path d="M643.44 918.05C644.19 926.44 646.74 947.78 649.51 969.64L709.63 941.19C711.95 931.68 713.75 924.04 713.75 924.04L643.44 918.05Z" fill="#883f25" opacity="0.2" stroke-width="4" stroke="none"></path><path d="M712.33 1004.98C710.31 1003.63 708.36 1002.14 706.71 1000.34 699.23 1004.23 694.88 1010.15 693.09 1015.47H673.84C669.13 1003.86 660.81 999.14 653.25 997.87 654.67 1008.13 655.95 1017.04 656.92 1022.95H722.59C722.66 1022.95 722.81 1022.88 722.81 1022.8 722.96 1021.38 723.41 1012.17 712.33 1004.98Z" fill="#229b99" opacity="1" stroke-width="4" stroke="none"></path><path d="M605.26 918.13C605.85 925.09 607.73 940.96 609.97 958.71 611.62 971.74 613.42 985.74 615.06 997.87 617.31 1008.43 621.2 1020.78 621.2 1020.78L682.68 1021.61C682.68 1021.61 684.62 1014.57 672.57 1006.78 670.25 1005.28 670.02 1001.99 668.53 1000.34 661.71 992.85 662.46 983.79 663.66 975.78 665.16 966.05 675.64 924.12 675.64 924.12L605.26 918.13Z" fill="#f8c6b4" opacity="1" stroke-width="4" stroke="none"></path><path d="M605.26 918.05C605.85 925.01 607.73 940.96 609.97 958.71L675.64 924.04 605.26 918.05Z" fill="#883f25" opacity="0.2" stroke-width="4" stroke="none"></path><path d="M674.14 1004.98C672.12 1003.63 670.17 1002.14 668.53 1000.34 661.04 1004.23 656.7 1010.15 654.9 1015.47H635.66C630.94 1003.86 622.63 999.14 615.06 997.87 616.49 1007.98 617.76 1016.81 618.66 1022.73 618.66 1022.88 618.81 1022.95 618.96 1022.95H684.1C684.4 1022.95 684.62 1022.73 684.7 1022.43 684.77 1020.26 684.55 1011.72 674.14 1004.98Z" fill="#229b99" opacity="1" stroke-width="4" stroke="none"></path><path d="M704.24 669.31C704.02 666.54 698.18 664.44 697.2 664.14 697.13 664.14 697.05 664.07 697.05 663.92 696.98 661.37 695.03 635.32 680.13 625.73 672.94 620.56 662.39 617.57 648.01 620.71 623.9 625.96 617.83 640.86 617.24 655.53 616.49 672.75 621.73 686.76 625.47 695.74L626.3 713.79 669.72 724.27 670.4 709.37C686.95 712.89 694.43 706.15 696.46 702.03 699.97 695.07 699.3 684.73 698.55 676.42 698.55 676.27 698.63 676.12 698.78 676.05 699.82 675.3 704.47 672.53 704.24 669.31Z" fill="#f8c6b4" opacity="1" stroke-width="4" stroke="none"></path><path d="M579.2 934.52C579.2 934.6 579.2 934.6 579.27 934.6H641.87L738.61 934.52C738.69 934.52 738.69 934.52 738.69 934.45 735.99 886.83 728.35 846.77 717.94 814.05H593.13C585.64 848.34 579.42 889.9 579.2 934.52Z" fill="#253b6e" opacity="1" stroke-width="4" stroke="none"></path><path d="M685.75 667.29C687.03 667.29 688.07 666.25 688.07 664.97 688.07 663.69 687.03 662.65 685.75 662.65 684.47 662.65 683.43 663.69 683.43 664.97 683.43 666.25 684.47 667.29 685.75 667.29Z" fill="#000000" opacity="1" stroke-width="4" stroke="none"></path><path d="M681.48 622.59C681.33 622.74 681.03 622.81 680.81 622.66 673.54 617.49 659.62 613.3 645.46 616.37 638.43 617.94 632.88 620.64 633.14 619.82 632.74 610.83 626.89 593.68 612.97 581.63 595.52 566.5 571.94 565.08 560.33 578.41 548.72 591.81 553.52 614.87 570.96 630.07 586.01 643.1 605.55 645.95 615.18 644.05 615.59 643.78 614.54 649.84 614.24 655.31 613.49 672.53 621.73 686.76 625.47 695.74 625.47 695.74 635.95 692.22 641.42 683.24 641.72 682.71 641.65 682.04 641.2 681.59 637.75 678.67 624.72 666.46 634.53 656.06 644.72 645.2 657.22 660.32 660.14 664.22 660.51 664.74 661.19 664.97 661.79 664.82 666.2 663.62 683.65 658.38 695.41 648.64 700.27 644.68 704.09 639.88 705.74 634.34 710.23 618.02 691.06 613.45 681.48 622.59Z" fill="#010508" opacity="1" stroke-width="4" stroke="none"></path><path d="M651.75 870.2C652.88 860.55 654.3 849.69 656.55 837.18 660.51 815.02 626.22 779.83 619.78 774.06 619.26 773.61 618.51 773.76 618.28 774.36 608.77 796.15 609.22 824.6 611.1 837.71 613.42 854.78 619.11 873.27 632.96 887.13L651.75 870.2Z" fill="#000000" opacity="0.2" stroke-width="4" stroke="none"></path><path d="M678.63 891.17C680.96 899.56 684.92 904.57 685.82 905.7 685.97 905.85 685.97 906.07 685.9 906.22 684.33 911.39 676.31 910.19 674.97 909.96 674.89 909.96 674.74 910.04 674.74 910.11 673.17 913.71 667.4 915.8 663.73 910.86 663.66 910.79 663.51 910.71 663.36 910.79 656.32 915.5 652.65 909.66 651.68 908.54 651.6 908.47 651.53 908.39 651.38 908.47 638.05 911.91 640 881.51 640.3 878.44L673.24 869.46C674.89 875.45 676.39 882.93 678.63 891.17Z" fill="#f8c6b4" opacity="1" stroke-width="4" stroke="none"></path><path d="M717.94 814.05C704.69 772.34 687.1 742.61 669.95 724.57 669.8 724.42 669.72 724.19 669.72 723.97L670.17 713.79H620.75C620.46 713.79 620.23 714.01 620.23 714.31V723.52C620.23 723.52 605.03 759.61 593.13 814.12L618.73 818.24C618.73 818.31 618.73 818.46 618.73 818.54 621.43 842.42 625.85 866.01 631.91 889.3 632.06 889.97 632.74 890.42 633.48 890.27L676.31 882.26C676.31 882.26 676.39 882.26 676.39 882.18 674.07 865.49 670.55 847.74 668.23 822.06L717.94 814.05Z" fill="#9ecfff" opacity="1" stroke-width="4" stroke="none"></path><path d="M670.4 709.29L669.87 720.38C669.87 720.53 669.72 720.53 669.65 720.45L660.21 704.88C660.14 704.73 660.29 704.65 660.44 704.73 664.03 706.97 665.76 707.72 670.4 709.29Z" fill="#883f25" opacity="0.2" stroke-width="4" stroke="none"></path><path d="M684.7 1021.23C684.85 1019.21 684.77 1011.05 674.14 1004.23 661.41 996 662.16 984.77 663.66 975.03 664.63 968.59 669.57 948 672.79 934.82" stroke="#883f25" stroke-width="4" stroke-linecap="round" stroke-linejoin="round" opacity="1" fill="none"></path><path d="M690.09 684.06C688.74 684.66 683.95 684.51 682.6 680.54" stroke="#883f25" stroke-width="4" stroke-linecap="round" stroke-linejoin="round" opacity="1" fill="none"></path><path d="M670.4 709.29C666.8 708.17 663.58 707.27 660.44 704.73" stroke="#883f25" stroke-width="4" stroke-linecap="round" stroke-linejoin="round" opacity="1" fill="none"></path><path d="M650.18 672.53L644.19 666.54" stroke="#883f25" stroke-width="4" stroke-linecap="round" stroke-linejoin="round" opacity="1" fill="none"></path><path d="M671.15 901.65C672.2 904.2 673.47 907.49 674.89 909.89" stroke="#883f25" stroke-width="4" stroke-linecap="round" stroke-linejoin="round" opacity="1" fill="none"></path><path d="M660.66 903.9C661.19 906 662.69 908.69 663.66 910.64" stroke="#883f25" stroke-width="4" stroke-linecap="round" stroke-linejoin="round" opacity="1" fill="none"></path><path d="M648.68 901.65C649.21 903.75 650.71 906.44 651.68 908.39" stroke="#883f25" stroke-width="4" stroke-linecap="round" stroke-linejoin="round" opacity="1" fill="none"></path><path d="M616.11 779.75C616.11 779.75 617.16 800.19 618.66 818.16" stroke="#283139" stroke-width="4" stroke-linecap="round" stroke-linejoin="round" opacity="1" fill="none"></path><path d="M666.95 803.56L668.23 821.98" stroke="#283139" stroke-width="4" stroke-linecap="round" stroke-linejoin="round" opacity="1" fill="none"></path></g><g><path d="M979.63 735.85C982.86 735.85 983.43 733.86 983.62 733.1 984.1 733.29 984.67 733.38 985.24 733.38 986.86 733.38 988.76 732.53 989.33 731 991.13 725.68 987.81 703.63 987.24 699.63 989.8 702.11 991.89 703.34 993.89 703.53 993.99 703.53 994.08 703.53 994.18 703.53 994.94 703.53 995.6 703.15 995.98 702.58 999.59 697.35 990.56 670.93 984.95 655.62 984.76 655.15 984.67 654.86 984.67 654.77 981.25 644.4 978.21 635.66 975.64 627.96 970.89 614.08 967.18 603.05 962.81 589.17 960.43 581.38 958.43 573.49 956.91 565.5L956.63 564.36 916.89 568.17V568.36C916.8 572.35 916.61 584.14 916.89 587.37 919.08 615.32 929.44 643.26 937.04 663.61 939.61 670.45 941.8 676.44 943.51 681.57 944.08 683.28 944.65 685.28 945.31 687.37 948.64 698.3 953.2 713.42 960.62 728.15 962.81 732.62 966.23 733.1 967.65 733.1 967.94 733.1 968.13 733.1 968.41 733.1 969.36 734.24 970.7 734.9 972.22 735 973.17 735 974.12 734.62 974.88 733.86 975.83 735.19 977.73 735.95 979.63 735.85Z" fill="#f7c7b5" opacity="1" stroke-width="4" stroke="none"></path><path d="M900.92 452.19C903.96 452.67 907.01 452.95 910.05 452.95 917.27 452.95 926.87 451.43 931.72 444.4 937.61 435.75 935.71 425.01 933.81 414.64L933.62 413.41C932.77 408.66 932.29 404 931.82 399.44 930.77 389.55 929.38 380.13 925.26 373.2 917.46 361.03 904.44 368.45 886.57 368.45 884.38 368.45 883.15 368.26 880.77 368.45 857 370.35 842.36 374.15 842.65 400.67 842.74 412.74 844.84 455.24 845.5 468.54V468.64L900.92 493.54V452.19 452.19Z" fill="#f7c7b5" opacity="1" stroke-width="4" stroke="none"></path><path d="M876.97 424.82L871.64 420.92" stroke="#0e0e0e" stroke-width="4" stroke-linecap="round" stroke-linejoin="round" opacity="1" fill="none"></path><path d="M901.02 452.19C897.31 451.34 895.31 451.15 889.32 448.58" stroke="#0e0e0e" stroke-width="4" stroke-linecap="round" stroke-linejoin="round" opacity="1" fill="none"></path><path d="M916.99 412.08L917.75 414.17C918.13 415.31 917.94 416.64 917.08 417.59L916.89 417.88" stroke="#0e0e0e" stroke-width="4" stroke-linecap="round" stroke-linejoin="round" opacity="1" fill="none"></path><path d="M920.12 427.76C918.79 428.81 914.42 429.28 911.66 426.34" stroke="#0e0e0e" stroke-width="4" stroke-linecap="round" stroke-linejoin="round" opacity="1" fill="none"></path><path d="M905.39 413.03C904.02 413.03 902.92 411.92 902.92 410.56 902.92 409.19 904.02 408.09 905.39 408.09 906.76 408.09 907.86 409.19 907.86 410.56 907.86 411.92 906.76 413.03 905.39 413.03Z" fill="#000000" opacity="1" stroke-width="4" stroke="none"></path><path d="M925.07 411.22C923.71 411.22 922.59 410.12 922.59 408.75 922.59 407.38 923.71 406.28 925.07 406.28 926.44 406.28 927.54 407.38 927.54 408.75 927.54 410.12 926.44 411.22 925.07 411.22Z" fill="#000000" opacity="1" stroke-width="4" stroke="none"></path><path d="M929.44 609.8L931.34 569.5 956.82 565.7V565.5C955.49 559.04 954.25 552.29 953.01 545.73 948.55 521.87 943.98 497.25 935.33 484.32 926.97 474.15 918.89 467.5 900.92 463.7 900.92 463.7 900.64 471.21 893.03 474.72 889.42 476.05 885.71 476.72 881.91 476.72 870.79 476.72 858.62 471.68 845.69 461.79H845.6 845.5C831.72 463.79 818.79 469.78 808.33 478.91 796.93 488.98 782.95 512.37 775.06 530.33L774.02 532.9 816.89 552.39C817.55 559.33 816.32 565.89 815.18 572.25 812.9 584.42 810.8 595.92 820.69 609.8L820.79 609.9 929.44 609.8Z" fill="#229b99" opacity="1" stroke-width="4" stroke="none"></path><path d="M947.12 683.47C947.98 683.47 948.74 683.09 949.4 682.52 960.33 673.21 956.63 655.53 950.83 628.81 950.07 625.3 949.31 621.59 948.45 617.69 944.08 596.21 939.33 569.4 937.04 554 935.62 544.59 932.48 544.31 932.1 544.31H931.91V544.5L929.44 608.47C929.72 611.61 935.9 683.47 947.12 683.47Z" fill="#0e0e0e" opacity="0.3" stroke-width="4" stroke="none"></path><path d="M864.23 609.8L863.75 609.42C863.56 609.33 848.54 597.54 844.84 581.67 842.74 572.92 842.65 563.22 842.55 555.43 842.46 548.49 842.36 542.98 841.03 540.79 839.42 538.03 837.42 537.46 836.09 537.46 835.42 537.46 834.76 537.56 834.19 537.84H834.09L825.54 555.05C825.44 555.14 807.1 569.02 804.63 579.76 803.29 585.66 812.52 598.3 818.69 606.76 819.45 607.81 820.22 608.85 820.88 609.71L820.98 609.8H864.23Z" fill="#000000" opacity="0.3" stroke-width="4" stroke="none"></path><path d="M715.55 478.05C720.21 470.16 727.53 464.27 736.28 461.41 740.27 460.08 744.45 459.42 748.64 459.42 751.96 459.42 755.1 459.89 758.14 460.65 757.29 438.22 766.51 417.21 782.67 405.71 792.36 398.77 804.53 395.25 819.07 395.25 825.92 395.25 832.86 396.01 839.61 397.63 839.51 373.58 854.91 357.42 880.01 355.42 882.38 355.23 884.76 355.14 886.95 355.14 904.82 355.14 917.27 361.13 925.33 373.1 927.06 376.43 928.77 379.63 929.25 383.37V383.47L929.15 383.56C929.06 383.56 927.35 384.7 923.74 384.7 919.17 384.7 913.75 382.99 907.67 379.57 907.45 379.48 908.62 388.12 906.72 390.69 904.82 393.26 901.3 394.59 896.36 394.59 893.7 394.49 891.13 394.3 888.56 393.73 888.05 393.31 890.56 408.37 881.81 413.6L881.72 413.68 881.62 413.6C881.53 413.5 872.88 406.85 864.99 406.85 860.05 406.85 856.53 409.42 854.34 414.45 848.73 427.38 871.17 440.69 871.36 440.79 871.36 440.79 876.11 470.64 857.19 493.35 846.83 505.71 827.63 514.08 809.28 514.08 800.35 514.27 791.51 512.08 783.62 507.8 781.43 506.57 779.43 505.14 777.44 503.53 773.26 511.32 765.84 517.88 756.24 521.11 752.25 522.44 748.06 523.11 743.88 523.11 729.43 523.11 716.89 514.74 712.8 502.48 710.14 494.3 711.18 485.37 715.55 478.05Z" fill="#000000" opacity="1" stroke-width="4" stroke="none"></path><path d="M758.24 460.56C758.24 460.84 758.24 461.13 758.24 461.41 759.19 478.91 766.22 494.02 777.53 503.34" stroke="#000000" stroke-width="4" stroke-linecap="round" stroke-linejoin="round" opacity="1" fill="none"></path><path d="M981.63 984.72L977.63 966.75C976.68 962.48 979.35 958.29 983.62 957.34 984.19 957.25 987.52 964.19 988.09 964.19L1016.13 956.87C1016.13 956.68 1016.61 956.39 1016.61 956.11 1015.56 951.26 1014.99 947.46 1014.71 945.08 1013.76 937.95 1012.9 930.63 1012.71 928.54L1010.91 926.26 1011.1 926.45C1011.88 927.36 997.79 923.31 993.6 916.47L993.41 916.18 993.22 916.47C986.19 928.06 971.17 931.77 959.57 924.74 956.15 922.65 953.3 919.79 951.3 916.47L951.11 916.18 950.92 916.47C946.74 923.41 941.8 926.21 933.72 926.83L931.72 927.02 931.28 928.69C933.05 947.65 936.76 966.94 941.8 985.29L981.63 984.72Z" fill="#f7c7b5" opacity="1" stroke-width="4" stroke="none"></path><path d="M821.93 984.72L817.93 966.75C816.98 962.48 819.64 958.29 823.92 957.34 824.49 957.25 825.06 957.15 825.63 957.15H855.48V956.96C855.39 949.64 856.53 940.71 859.38 927.49L859 926.45 858.9 925.88C853.58 923.98 849.3 921.41 846.36 916.56L846.17 916.28 845.98 916.56C838.94 928.16 823.92 931.87 812.33 924.83 808.9 922.74 806.05 919.89 804.06 916.56L803.87 916.28 803.67 916.56C799.78 923.03 794.55 925.59 787.04 926.45L787.23 925.97 785.23 928.44C785.14 931.87 785.33 935.48 785.33 939.19 785.33 955.92 788.09 976.64 789.13 984.72L789.42 986.43C789.42 986.62 789.61 986.72 789.7 986.72L821.93 984.72Z" fill="#f7c7b5" opacity="1" stroke-width="4" stroke="none"></path><path d="M825.16 928.82C833.43 928.82 841.03 924.83 845.6 917.99 845.88 917.51 846.55 917.51 846.83 917.99 849.87 922.36 854.06 925.59 859.09 927.4L859.38 927.49C859.76 925.88 859.95 924.17 860.33 922.46 861.85 915.61 863.66 908.29 865.56 900.5 867.17 893.84 868.89 886.9 870.5 879.58V879.49C871.74 874.07 873.16 868.75 874.68 862.95 881.43 838.04 886.66 812.66 890.37 786.99 891.8 776.06 893.13 763.61 894.46 749.92 894.55 749.16 895.5 748.97 895.88 749.64 898.73 754.96 901.78 760.38 904.91 765.61 920.41 792.03 927.35 812.57 929.06 836.33 929.53 842.41 929.34 849.92 929.25 859.34 929.15 865.13 929.06 871.79 929.06 879.11V879.39C929.06 893.94 929.63 908.01 930.68 922.27L930.77 923.41C930.87 925.12 931.06 926.83 931.25 928.44V928.82C938.95 928.35 946.07 924.17 950.45 917.89 950.73 917.42 951.4 917.42 951.68 917.89 959.1 928.82 974.02 932.06 985.33 924.93 988.28 923.12 990.75 920.74 992.65 917.89 992.94 917.42 993.6 917.51 993.89 917.89 998.17 924.07 1005.01 928.06 1012.52 928.63H1012.71V928.44C1012.52 926.45 1012.43 924.45 1012.24 922.27 1011.86 917.7 1011.57 912.85 1011.19 907.72 1010.62 899.36 1009.96 889.75 1009.1 879.68V879.39L1008.81 873.59C1007.67 847.64 1006.82 830.44 1002.16 798.97 992.94 736.14 941.04 632.71 940.37 631.38L924.4 610.75 820.31 608.28 820.22 608.38C799.02 653.63 801.68 703.06 804.06 746.59 805.29 769.69 806.53 791.46 804.06 810.57 801.87 828.16 799.02 841.65 795.98 856.01 794.45 863.33 792.84 870.93 791.32 879.3L790.75 882.53C788.56 894.41 786.37 905.72 785.52 922.27 785.42 924.26 785.33 926.26 785.23 928.25V928.44H785.42C792.46 927.59 798.83 923.69 802.82 917.8 803.1 917.32 803.77 917.32 804.06 917.8 809.19 924.83 816.89 928.82 825.16 928.82Z" fill="#ffffff" opacity="1" stroke-width="4" stroke="none"></path><path d="M944.84 923.79L945.03 923.6C945.03 923.6 942.75 893.56 948.36 828.82 952.44 781.58 917.65 708.09 906.82 686.61 902.92 679.77 897.69 683.47 897.69 683.47L894.74 747.45C897.97 753.44 901.4 759.62 904.91 765.61 920.41 792.03 927.35 812.57 929.06 836.33 929.53 842.41 929.34 849.92 929.25 859.34 929.15 865.13 929.06 871.69 929.06 879.11V879.39C929.06 893.94 929.63 908.01 930.68 922.04L930.77 923.45C930.84 925.16 931.33 926.47 931.43 927.8 931.39 928.68 938.21 928.89 944.84 923.79Z" fill="#c7c7c7" opacity="0.3" stroke-width="4" stroke="none"></path><path d="M897.78 683.47C896.45 702.68 896.26 731.76 894.36 752.01" stroke="#c7c7c7" stroke-width="4" stroke-linecap="round" stroke-linejoin="round" opacity="1" fill="none"></path><path d="M940.37 631.38C933.91 617.69 929.53 608.47 929.53 608.47H820.79L820.69 608.57C817.27 615.89 814.42 623.4 812.14 631.1L812.04 631.38 940.37 631.38Z" fill="#229b99" opacity="1" stroke-width="4" stroke="none"></path><path d="M820.88 609.23L929.44 608.47 931.91 544.5" stroke="#000000" stroke-width="4" stroke-linecap="round" stroke-linejoin="round" opacity="1" fill="none"></path><path d="M873.26 670.36C873.54 670.36 873.92 670.26 874.21 670.17 874.59 670.07 874.78 669.79 874.87 669.41 875.45 668.07 875.54 664.37 870.03 653.72 873.07 656.48 884.48 666.08 893.22 666.08 895.69 666.17 898.07 665.22 899.78 663.51 899.88 663.51 900.16 663.51 900.45 663.51 901.78 663.51 905.1 663.32 906.62 661.04 907.67 659.52 907.58 657.43 906.53 654.77 907.1 654.1 910.05 650.49 905.48 644.12 898.07 633.76 892.75 627.67 878.87 616.55 865.18 605.62 818.31 577.58 815.27 575.77L825.73 554.86 775.92 528.43 775.25 529.95C762.99 560.18 759.85 576.82 764.42 592.98 769.74 612.08 804.91 628.43 825.82 638.23 831.15 640.7 835.71 642.79 838.66 644.5 846.93 649.06 854.06 655.72 859.86 661.04 865.75 666.27 870.22 670.36 873.26 670.36Z" fill="#f7c7b5" opacity="1" stroke-width="4" stroke="none"></path><path d="M815.18 575.96L796.17 577.86" stroke="#0e0e0e" stroke-width="4" stroke-linecap="round" stroke-linejoin="round" opacity="1" fill="none"></path><path d="M987.24 699.63L978.68 688.13" stroke="#0e0e0e" stroke-width="4" stroke-linecap="round" stroke-linejoin="round" opacity="1" fill="none"></path><path d="M906.43 654.86C895.98 644.4 877.92 628.24 877.92 628.24" stroke="#0e0e0e" stroke-width="4" stroke-linecap="round" stroke-linejoin="round" opacity="1" fill="none"></path><path d="M899.78 663.42C899.78 663.42 883.62 648.21 869.36 637.75" stroke="#0e0e0e" stroke-width="4" stroke-linecap="round" stroke-linejoin="round" opacity="1" fill="none"></path><path d="M870.03 653.72L861.76 646.31" stroke="#0e0e0e" stroke-width="4" stroke-linecap="round" stroke-linejoin="round" opacity="1" fill="none"></path><path d="M899.69 451.91C894.84 450.86 891.13 449.34 889.08 448.44L900.92 461.7V452.19L899.69 451.91Z" fill="#0e0e0e" opacity="0.3" stroke-width="4" stroke="none"></path><path d="M896.07 1010.01L895.98 1009.72C892.94 1002.5 887.23 998.31 880.58 993.37 874.21 988.62 867.08 983.29 860.33 974.17 857.29 970.08 855.67 964.47 855.48 956.96V956.49L825.73 956.77C821.17 956.77 817.46 960.48 817.46 965.04 817.46 965.61 817.55 966.28 817.65 966.85L821.55 984.34H789.13V984.53C790.27 993.08 792.08 1004.21 793.79 1012.38L896.07 1010.01Z" fill="#9ecfff" opacity="1" stroke-width="4" stroke="none"></path><path d="M1056.34 1017.9L1060.15 1009.25C1059.96 1008.67 1059.77 1008.1 1059.58 1007.63 1056.34 1000.97 1050.83 998.22 1044.37 993.47 1037.9 988.71 1030.58 983.39 1023.74 974.26 1020.79 970.27 1018.32 964 1016.61 956.2L985.52 956.87C980.96 956.87 977.25 960.57 977.25 965.14 977.25 965.71 977.35 966.37 977.44 966.94L981.34 984.43 941.61 984.72C943.98 993.47 946.46 1001.26 949.31 1009.25L1056.34 1017.9Z" fill="#9ecfff" opacity="1" stroke-width="4" stroke="none"></path><path d="M898.45 1022.74C898.54 1018.18 898.26 1014.85 896.55 1010.58L895.6 1008.86 793.22 1009.15 793.5 1010.67C795.21 1018.94 796.36 1022.74 796.36 1022.74H898.45Z" fill="#229b99" opacity="1" stroke-width="4" stroke="none"></path><path d="M1062.52 1022.93V1022.74C1062.62 1018.18 1061.86 1013.52 1060.15 1009.25H949.31L949.4 1009.53C952.44 1017.9 954.73 1022.93 954.73 1022.93H1062.52Z" fill="#229b99" opacity="1" stroke-width="4" stroke="none"></path><path d="M1023.45 974.26L1009.48 983.39" stroke="#284b6d" stroke-width="4" stroke-linecap="round" stroke-linejoin="round" opacity="1" fill="none"></path><path d="M1030.58 982.34L1020.6 994.32" stroke="#284b6d" stroke-width="4" stroke-linecap="round" stroke-linejoin="round" opacity="1" fill="none"></path><path d="M860.52 974.45L846.93 983.39" stroke="#284b6d" stroke-width="4" stroke-linecap="round" stroke-linejoin="round" opacity="1" fill="none"></path><path d="M867.75 982.72L858.14 994.32" stroke="#284b6d" stroke-width="4" stroke-linecap="round" stroke-linejoin="round" opacity="1" fill="none"></path><path d="M821.55 984.34L828.3 1007.82" stroke="#284b6d" stroke-width="4" stroke-linecap="round" stroke-linejoin="round" opacity="1" fill="none"></path><path d="M981.25 984.34L988.76 1008.01" stroke="#284b6d" stroke-width="4" stroke-linecap="round" stroke-linejoin="round" opacity="1" fill="none"></path><path d="M839.7 397.63L840.94 413.88" stroke="#000000" stroke-width="4" stroke-linecap="round" stroke-linejoin="round" opacity="1" fill="none"></path><path d="M825.73 554.86L834.19 537.84" stroke="#000000" stroke-width="4" stroke-linecap="round" opacity="1" fill="none"></path></g></svg>